<?xml version="1.0" encoding="UTF-8"?>
<!DOCTYPE svg PUBLIC "-//W3C//DTD SVG 1.1//EN" "http://www.w3.org/Graphics/SVG/1.1/DTD/svg11.dtd">
<!-- Creator: CorelDRAW 2019 (64-Bit) -->
<svg xmlns="http://www.w3.org/2000/svg" xml:space="preserve" width="280px" height="280px" version="1.1" style="shape-rendering:geometricPrecision; text-rendering:geometricPrecision; image-rendering:optimizeQuality; fill-rule:evenodd; clip-rule:evenodd"
viewBox="0 0 280 275"
 xmlns:xlink="http://www.w3.org/1999/xlink"
 xmlns:xodm="http://www.corel.com/coreldraw/odm/2003">
 <defs>
  <style type="text/css">
   <![CDATA[
    .str0 {stroke:#2B2A29;stroke-width:12.5;stroke-miterlimit:22.9256}
    .fil0 {fill:none}
   ]]>
  </style>
 </defs>
 <g id="Слой_x0020_1">
  <metadata id="CorelCorpID_0Corel-Layer"/>
  <path style="stroke:black" class="fil0 str0" d="M19.17 119.58c-0.21,49.86 -0.41,99.72 -0.52,124.65 -0.1,24.93 -0.1,24.93 4.17,21.5 4.27,-3.44 12.81,-10.31 19.91,-17.4 7.09,-7.08 12.74,-14.37 17.63,-21.41 4.89,-7.05 9.02,-13.84 12.75,-20.82 3.73,-6.98 7.05,-14.14 9.87,-21.89 2.81,-7.75 5.13,-16.09 6.7,-25.25 1.58,-9.17 2.41,-19.17 2.09,-29.9 -0.33,-10.73 -1.81,-22.19 -4.83,-34.79 -3.02,-12.61 -7.58,-26.36 -15.38,-39.27 -7.8,-12.92 -18.84,-25 -25.67,-31.99 -6.83,-6.99 -9.45,-8.89 -11.38,-10.46 -1.94,-1.58 -3.19,-2.83 -4.44,-4.08"/>
  <path style="stroke:black" class="fil0 str0" d="M122.92 119.58c0,51.46 0,102.92 0,128.65 0,25.73 0,25.73 0,25.73"/>
  <path style="stroke:black" class="fil0 str0" d="M159.48 273.77c0,-48.54 0,-97.07 0,-122.13 0,-25.05 0,-26.63 4.79,-26.71 4.79,-0.09 14.36,1.31 22.4,3.47 8.04,2.16 14.54,5.08 20.78,9.87 6.24,4.79 12.21,11.46 15.65,16.46 3.45,5 4.36,8.34 5.83,12.09 1.47,3.75 3.5,7.91 4.85,25.81 1.36,17.9 2.04,49.54 2.73,81.18"/>
  <path style="stroke:black" class="fil0 str0" d="M269.87 119.44c0.21,51.36 0.41,102.72 0.62,154.07"/>
 </g>
</svg>
