<?xml version="1.0" encoding="UTF-8"?>
<!DOCTYPE svg PUBLIC "-//W3C//DTD SVG 1.1//EN" "http://www.w3.org/Graphics/SVG/1.1/DTD/svg11.dtd">
<!-- Creator: CorelDRAW 2019 (64-Bit) -->
<svg xmlns="http://www.w3.org/2000/svg" xml:space="preserve" width="40px" height="40px" version="1.1" style="shape-rendering:geometricPrecision; text-rendering:geometricPrecision; image-rendering:optimizeQuality; fill-rule:evenodd; clip-rule:evenodd"
viewBox="0 0 38 38"
 xmlns:xlink="http://www.w3.org/1999/xlink"
 xmlns:xodm="http://www.corel.com/coreldraw/odm/2003">
 <defs>
  <style type="text/css">
   <![CDATA[
    .fil4 {fill:none}
    .fil0 {fill:white;fill-rule:nonzero}
    .fil1 {fill:#D02F44}
    .fil2 {fill:#46467F;fill-rule:nonzero}
    .fil3 {fill:url(#id1)}
   ]]>
  </style>
   <clipPath id="id0">
    <path d="M1.71 -0.35l34.28 0c1.58,0 2.86,1.79 2.86,4l0 32c0,2.21 -1.28,4.01 -2.86,4.01l-34.28 0c-1.58,0 -2.86,-1.8 -2.86,-4.01l0 -32c0,-2.21 1.28,-4 2.86,-4z"/>
   </clipPath>
  <linearGradient id="id1" gradientUnits="userSpaceOnUse" x1="0.28" y1="1.65" x2="0.28" y2="13.65">
   <stop offset="0" style="stop-opacity:1; stop-color:white"/>
   <stop offset="1" style="stop-opacity:1; stop-color:#F0F0F0"/>
  </linearGradient>
 </defs>
 <g id="Слой_x0020_1">
  <metadata id="CorelCorpID_0Corel-Layer"/>
  <g>
  </g>
  <g style="clip-path:url(#id0)">
   <g>
    <path class="fil0" d="M1.71 -0.35l34.28 0c1.58,0 2.86,1.79 2.86,4l0 32c0,2.21 -1.28,4.01 -2.86,4.01l-34.28 0c-1.58,0 -2.86,-1.8 -2.86,-4.01l0 -32c0,-2.21 1.28,-4 2.86,-4z"/>
    <path class="fil1" d="M38.85 -0.35l-40 0 0 2.67 40 0 0 -2.67zm0 5.34l-40 0 0 2.66 40 0 0 -2.66zm-40 5.33l40 0 0 2.67 -40 0 0 -2.67zm40 5.33l-40 0 0 2.67 40 0 0 -2.67zm-40 5.34l40 0 0 2.66 -40 0 0 -2.66zm40 5.33l-40 0 0 2.67 40 0 0 -2.67zm-40 5.33l40 0 0 2.67 -40 0 0 -2.67zm40 5.34l-40 0 0 2.67 40 0 0 -2.67z"/>
    <polygon class="fil2" points="-1.15,18.32 15.99,18.32 15.99,-0.35 -1.15,-0.35 "/>
    <path class="fil3" d="M2.66 3.65c0,0.74 -0.43,1.34 -0.95,1.34 -0.53,0 -0.96,-0.6 -0.96,-1.34 0,-0.73 0.43,-1.33 0.96,-1.33 0.52,0 0.95,0.6 0.95,1.33zm3.81 0c0,0.74 -0.43,1.34 -0.95,1.34 -0.53,0 -0.95,-0.6 -0.95,-1.34 0,-0.73 0.42,-1.33 0.95,-1.33 0.52,0 0.95,0.6 0.95,1.33zm2.86 1.34c0.52,0 0.95,-0.6 0.95,-1.34 0,-0.73 -0.43,-1.33 -0.95,-1.33 -0.53,0 -0.96,0.6 -0.96,1.33 0,0.74 0.43,1.34 0.96,1.34zm4.76 -1.34c0,0.74 -0.43,1.34 -0.95,1.34 -0.53,0 -0.96,-0.6 -0.96,-1.34 0,-0.73 0.43,-1.33 0.96,-1.33 0.52,0 0.95,0.6 0.95,1.33zm-10.48 4c0.53,0 0.96,-0.59 0.96,-1.33 0,-0.74 -0.43,-1.33 -0.96,-1.33 -0.52,0 -0.95,0.59 -0.95,1.33 0,0.74 0.43,1.33 0.95,1.33zm4.76 -1.33c0,0.74 -0.42,1.33 -0.95,1.33 -0.52,0 -0.95,-0.59 -0.95,-1.33 0,-0.74 0.43,-1.33 0.95,-1.33 0.53,0 0.95,0.59 0.95,1.33zm2.86 1.33c0.53,0 0.95,-0.59 0.95,-1.33 0,-0.74 -0.42,-1.33 -0.95,-1.33 -0.53,0 -0.95,0.59 -0.95,1.33 0,0.74 0.42,1.33 0.95,1.33zm2.86 1.34c0,0.73 -0.43,1.33 -0.95,1.33 -0.53,0 -0.96,-0.6 -0.96,-1.33 0,-0.74 0.43,-1.34 0.96,-1.34 0.52,0 0.95,0.6 0.95,1.34zm-4.76 1.33c0.52,0 0.95,-0.6 0.95,-1.33 0,-0.74 -0.43,-1.34 -0.95,-1.34 -0.53,0 -0.96,0.6 -0.96,1.34 0,0.73 0.43,1.33 0.96,1.33zm-2.86 -1.33c0,0.73 -0.43,1.33 -0.95,1.33 -0.53,0 -0.95,-0.6 -0.95,-1.33 0,-0.74 0.42,-1.34 0.95,-1.34 0.52,0 0.95,0.6 0.95,1.34zm-4.76 1.33c0.52,0 0.95,-0.6 0.95,-1.33 0,-0.74 -0.43,-1.34 -0.95,-1.34 -0.53,0 -0.96,0.6 -0.96,1.34 0,0.73 0.43,1.33 0.96,1.33zm2.86 1.33c0,0.74 -0.43,1.34 -0.96,1.34 -0.52,0 -0.95,-0.6 -0.95,-1.34 0,-0.73 0.43,-1.33 0.95,-1.33 0.53,0 0.96,0.6 0.96,1.33zm2.85 1.34c0.53,0 0.95,-0.6 0.95,-1.34 0,-0.73 -0.42,-1.33 -0.95,-1.33 -0.52,0 -0.95,0.6 -0.95,1.33 0,0.74 0.43,1.34 0.95,1.34zm4.76 -1.34c0,0.74 -0.42,1.34 -0.95,1.34 -0.53,0 -0.95,-0.6 -0.95,-1.34 0,-0.73 0.42,-1.33 0.95,-1.33 0.53,0 0.95,0.6 0.95,1.33zm0.96 4c0.52,0 0.95,-0.59 0.95,-1.33 0,-0.74 -0.43,-1.33 -0.95,-1.33 -0.53,0 -0.96,0.59 -0.96,1.33 0,0.74 0.43,1.33 0.96,1.33zm-2.86 -1.33c0,0.74 -0.43,1.33 -0.95,1.33 -0.53,0 -0.96,-0.59 -0.96,-1.33 0,-0.74 0.43,-1.33 0.96,-1.33 0.52,0 0.95,0.59 0.95,1.33zm-4.76 1.33c0.52,0 0.95,-0.59 0.95,-1.33 0,-0.74 -0.43,-1.33 -0.95,-1.33 -0.53,0 -0.95,0.59 -0.95,1.33 0,0.74 0.42,1.33 0.95,1.33zm-2.86 -1.33c0,0.74 -0.43,1.33 -0.95,1.33 -0.53,0 -0.96,-0.59 -0.96,-1.33 0,-0.74 0.43,-1.33 0.96,-1.33 0.52,0 0.95,0.59 0.95,1.33z" filter="url(#filter0_d_503_3486)"/>
   </g>
  </g>
  <path class="fil4" d="M1.71 -0.35l34.28 0c1.58,0 2.86,1.79 2.86,4l0 32c0,2.21 -1.28,4.01 -2.86,4.01l-34.28 0c-1.58,0 -2.86,-1.8 -2.86,-4.01l0 -32c0,-2.21 1.28,-4 2.86,-4z"/>
 </g>
</svg>
